<svg width="50" height="40" viewBox="0 0 50 40" version="1.1" xmlns="http://www.w3.org/2000/svg"><title>Artboard</title><g fill-rule="nonzero" stroke="none" stroke-width="1"><path d="M35.079 10.448h-1.737v-.52c0-.99-.816-1.772-1.79-1.772h-.394c-1 0-1.79.808-1.79 1.771v.52h-1.973v-.52c0-.99-.816-1.77-1.79-1.77h-.394c-1 0-1.79.807-1.79 1.77v.52h-1.974v-.52c0-.99-.815-1.77-1.79-1.77h-.394c-1 0-1.79.807-1.79 1.77v.52h-1.736a2.637 2.637 0 0 0-2.658 2.631v17.188c0 1.432 1.184 2.63 2.658 2.63h19.395c1.447 0 2.657-1.172 2.657-2.63V13.078c-.078-1.458-1.263-2.63-2.71-2.63zM30.553 9.9c0-.312.263-.573.579-.573h.394c.316 0 .58.26.58.573v2.266a.581.581 0 0 1-.58.573h-.394a.581.581 0 0 1-.58-.573V9.9zm-5.948 0c0-.312.263-.573.58-.573h.394c.316 0 .579.26.579.573v2.266a.581.581 0 0 1-.58.573h-.394a.581.581 0 0 1-.579-.573V9.9zm-5.973 0c0-.312.263-.573.579-.573h.368c.316 0 .579.26.579.573v2.266a.581.581 0 0 1-.58.573h-.394a.581.581 0 0 1-.579-.573V9.9h.027zm-2.974 1.745h1.737v.52c0 .99.816 1.771 1.79 1.771h.394c1 0 1.79-.807 1.79-1.77v-.521h1.973v.52c0 .99.816 1.771 1.79 1.771h.394c1 0 1.79-.807 1.79-1.77v-.521h1.973v.52c0 .99.816 1.771 1.79 1.771h.395c1 0 1.79-.807 1.79-1.77v-.521H35c.79 0 1.421.625 1.421 1.406v2.604H14.237v-2.604c0-.755.631-1.406 1.42-1.406zm19.42 20h-19.42c-.79 0-1.421-.625-1.421-1.406V16.88H36.5v13.36c0 .78-.658 1.406-1.421 1.406z"/><path d="M31.342 25.344a2.017 2.017 0 0 0-2.026 2.005c0 1.094.92 2.005 2.026 2.005 1.105 0 2.026-.911 2.026-2.005 0-1.094-.92-2.005-2.026-2.005zm0 2.812a.816.816 0 0 1-.816-.807.816.816 0 0 1 1.632 0c-.026.443-.369.807-.816.807zM20.816 20.578h-2.79a.592.592 0 0 0-.605.6c0 .338.263.598.605.598h2.816c.342 0 .605-.26.605-.599 0-.312-.29-.599-.631-.599zM26.763 26.75h-2.79a.592.592 0 0 0-.605.599c0 .338.264.599.606.599h2.815c.343 0 .606-.26.606-.599-.027-.313-.29-.599-.632-.599zM29.921 21.802h2.816c.342 0 .605-.26.605-.599a.592.592 0 0 0-.605-.599H29.92a.592.592 0 0 0-.605.6c0 .312.263.598.605.598zM26.763 20.578h-2.79a.592.592 0 0 0-.605.6c0 .338.264.598.606.598h2.815c.343 0 .606-.26.606-.599-.027-.312-.29-.599-.632-.599zM20.816 26.75h-2.79a.592.592 0 0 0-.605.599c0 .338.263.599.605.599h2.816c.342 0 .605-.26.605-.599 0-.313-.29-.599-.631-.599z"/></g></svg>