<svg width="50" height="40" viewBox="0 0 50 40" version="1.1" xmlns="http://www.w3.org/2000/svg"><title>Artboard</title><g fill-rule="nonzero" stroke="none" stroke-width="1"><path d="M36.686 17.689h-1.422a.158.158 0 0 1-.153-.119 10.39 10.39 0 0 0-1.242-3.001.158.158 0 0 1 .023-.194l1.005-1.005a1.32 1.32 0 0 0 0-1.86l-1.407-1.407a1.32 1.32 0 0 0-1.86 0l-1.005 1.005a.157.157 0 0 1-.194.023A10.31 10.31 0 0 0 27.43 9.89a.158.158 0 0 1-.119-.153V8.314c0-.725-.59-1.314-1.314-1.314h-1.99c-.729 0-1.318.59-1.318 1.314v1.422c0 .072-.05.136-.119.153a10.39 10.39 0 0 0-3.001 1.242.158.158 0 0 1-.194-.023l-1.005-1.005a1.32 1.32 0 0 0-1.86 0l-1.407 1.407a1.32 1.32 0 0 0 0 1.86l1.005 1.005c.052.052.06.13.023.194a10.31 10.31 0 0 0-1.242 3.001.158.158 0 0 1-.153.119h-1.422c-.725 0-1.314.59-1.314 1.314v1.99c0 .729.59 1.318 1.314 1.318h1.422c.072 0 .136.05.153.119a10.39 10.39 0 0 0 1.242 3.001.158.158 0 0 1-.023.194l-1.005 1.005a1.32 1.32 0 0 0 0 1.86l1.407 1.407a1.32 1.32 0 0 0 1.86 0l1.005-1.005a.157.157 0 0 1 .194-.023c.93.572 1.941.988 3.001 1.242.07.017.119.078.119.153v1.422c0 .725.59 1.314 1.314 1.314h1.99c.726 0 1.315-.59 1.315-1.314v-1.422c0-.072.05-.136.119-.153a10.39 10.39 0 0 0 3.001-1.242.158.158 0 0 1 .194.023l1.005 1.005a1.32 1.32 0 0 0 1.86 0l1.407-1.407a1.32 1.32 0 0 0 0-1.86l-1.005-1.005a.157.157 0 0 1-.023-.194 10.31 10.31 0 0 0 1.242-3.001.155.155 0 0 1 .153-.119h1.422c.725 0 1.314-.59 1.314-1.314v-1.99a1.312 1.312 0 0 0-1.311-1.318zm.158 3.308c0 .09-.072.159-.158.159h-1.422c-.61 0-1.135.413-1.277 1.005a9.215 9.215 0 0 1-1.103 2.666c-.318.52-.24 1.182.19 1.615l1.006 1.006a.16.16 0 0 1 0 .228l-1.407 1.407a.16.16 0 0 1-.228 0l-1.006-1.006a1.307 1.307 0 0 0-1.615-.19 9.135 9.135 0 0 1-2.666 1.103 1.303 1.303 0 0 0-1.002 1.274v1.422c0 .09-.073.158-.16.158h-1.99a.16.16 0 0 1-.162-.158v-1.422c0-.61-.413-1.135-1.005-1.277a9.215 9.215 0 0 1-2.666-1.103 1.311 1.311 0 0 0-1.615.194l-1.006 1.005a.16.16 0 0 1-.228 0l-1.407-1.407a.16.16 0 0 1 0-.228l1.006-1.006c.43-.43.511-1.095.19-1.615a9.135 9.135 0 0 1-1.103-2.666 1.302 1.302 0 0 0-1.274-1.005h-1.422a.16.16 0 0 1-.158-.16v-1.99a.16.16 0 0 1 .158-.162h1.422c.61 0 1.135-.413 1.277-1.005a9.215 9.215 0 0 1 1.103-2.666c.318-.52.24-1.182-.19-1.615l-1.006-1.006a.16.16 0 0 1 0-.228l1.407-1.407a.16.16 0 0 1 .228 0l1.006 1.006a1.31 1.31 0 0 0 1.615.19 9.135 9.135 0 0 1 2.666-1.103 1.303 1.303 0 0 0 1.002-1.274V8.314a.16.16 0 0 1 .16-.158h1.99a.16.16 0 0 1 .162.158v1.422c0 .61.413 1.135 1.005 1.277.942.225 1.84.598 2.666 1.103.52.318 1.182.24 1.615-.19l1.006-1.006a.16.16 0 0 1 .228 0l1.407 1.407a.16.16 0 0 1 0 .228l-1.006 1.006a1.307 1.307 0 0 0-.19 1.615 9.135 9.135 0 0 1 1.103 2.666c.139.59.665 1.002 1.274 1.002h1.422c.09 0 .158.073.158.16v1.993z"/><path d="M25 13.933A6.073 6.073 0 0 0 18.933 20 6.073 6.073 0 0 0 25 26.067 6.073 6.073 0 0 0 31.067 20 6.073 6.073 0 0 0 25 13.933zm0 10.978A4.918 4.918 0 0 1 20.089 20 4.918 4.918 0 0 1 25 15.089 4.918 4.918 0 0 1 29.911 20 4.918 4.918 0 0 1 25 24.911z"/></g></svg>