<svg width="50" height="40" viewBox="0 0 50 40" version="1.1" xmlns="http://www.w3.org/2000/svg"><title>Artboard</title><path d="M45.317 16.774h-2.734v-2.032a2.041 2.041 0 0 0-2.05-2.032h-1.366a2.042 2.042 0 0 0-.684.124v-.802A2.041 2.041 0 0 0 36.433 10h-1.366c-1.133 0-2.05.91-2.05 2.032v4.742H17.983V12.71a2.041 2.041 0 0 0-2.05-2.033h-1.366c-1.133 0-2.05.91-2.05 2.033v.802a2.042 2.042 0 0 0-.684-.125h-1.366c-1.133 0-2.05.91-2.05 2.032v1.355H5.683a.68.68 0 0 0-.683.678v6.774a.68.68 0 0 0 .683.677h2.734v2.032c0 1.123.917 2.033 2.05 2.033h1.366c.234-.003.465-.045.684-.125v.125c0 1.122.917 2.032 2.05 2.032h1.366c1.133 0 2.05-.91 2.05-2.032v-4.065h15.034v3.387c0 1.123.917 2.033 2.05 2.033h1.366c1.133 0 2.05-.91 2.05-2.033v-.124c.22.08.45.122.684.124h1.366c1.133 0 2.05-.91 2.05-2.032v-1.355h2.734a.68.68 0 0 0 .683-.677v-6.774a.68.68 0 0 0-.683-.678zm-38.95 6.774V18.13h2.05v5.42h-2.05zm5.466 4.065h-1.366a.68.68 0 0 1-.684-.678V15.42a.68.68 0 0 1 .684-.677h1.366a.68.68 0 0 1 .684.677v11.516a.68.68 0 0 1-.684.678zm4.784 1.355a.68.68 0 0 1-.684.677h-1.366a.68.68 0 0 1-.684-.677V12.71a.68.68 0 0 1 .684-.678h1.366a.68.68 0 0 1 .684.678v16.258zm1.366-5.42V18.13h15.034v5.42H17.983zm19.134 4.742a.68.68 0 0 1-.684.678h-1.366a.68.68 0 0 1-.684-.678V12.032a.68.68 0 0 1 .684-.677h1.366a.68.68 0 0 1 .684.677V28.29zm4.1-2.032a.68.68 0 0 1-.684.677h-1.366a.68.68 0 0 1-.684-.677V14.742a.68.68 0 0 1 .684-.677h1.366a.68.68 0 0 1 .684.677v11.516zm3.416-2.71h-2.05V18.13h2.05v5.42z" fill-rule="nonzero" stroke="none" stroke-width="1"/></svg>